<svg version="1.1" viewBox="0.0 0.0 953.0656167979002 340.5459317585302" fill="none" stroke="none" stroke-linecap="square" stroke-miterlimit="10" xmlns:xlink="http://www.w3.org/1999/xlink" xmlns="http://www.w3.org/2000/svg"><clipPath id="p.0"><path d="m0 0l953.0656 0l0 340.54593l-953.0656 0l0 -340.54593z" clip-rule="nonzero"/></clipPath><g clip-path="url(#p.0)"><path fill="#000000" fill-opacity="0.0" d="m0 0l953.0656 0l0 340.54593l-953.0656 0z" fill-rule="evenodd"/><path fill="#d9ead3" d="m-3.4593177 233.70604l956.1575 0l0 106.07875l-956.1575 0z" fill-rule="evenodd"/><path fill="#cfe2f3" d="m-3.456693 90.58268l956.1575 0l0 143.27557l-956.1575 0z" fill-rule="evenodd"/><path fill="#f4cccc" d="m-3.8451443 0l956.1575 0l0 90.77165l-956.1575 0z" fill-rule="evenodd"/><path fill="#000000" fill-opacity="0.0" d="m28.800526 162.23885l879.37006 -0.94488525" fill-rule="evenodd"/><path stroke="#000000" stroke-width="1.0" stroke-linejoin="round" stroke-linecap="butt" d="m28.800526 162.23885l873.37006 -0.9384308" fill-rule="evenodd"/><path fill="#000000" stroke="#000000" stroke-width="1.0" stroke-linecap="butt" d="m902.17236 162.95215l4.536316 -1.6566162l-4.539856 -1.6468506z" fill-rule="evenodd"/><path fill="#ffffff" d="m103.20735 166.80577l0 0c0 -29.292831 23.746529 -53.039368 53.039368 -53.039368l0 0c14.06691 0 27.557693 5.5880585 37.5045 15.534866c9.946808 9.946823 15.534866 23.437592 15.534866 37.5045l0 0c0 29.292831 -23.746536 53.039368 -53.039368 53.039368l0 0c-29.29284 0 -53.039368 -23.746536 -53.039368 -53.039368z" fill-rule="evenodd"/><path stroke="#000000" stroke-width="1.0" stroke-linejoin="round" stroke-linecap="butt" d="m103.20735 166.80577l0 0c0 -29.292831 23.746529 -53.039368 53.039368 -53.039368l0 0c14.06691 0 27.557693 5.5880585 37.5045 15.534866c9.946808 9.946823 15.534866 23.437592 15.534866 37.5045l0 0c0 29.292831 -23.746536 53.039368 -53.039368 53.039368l0 0c-29.29284 0 -53.039368 -23.746536 -53.039368 -53.039368z" fill-rule="evenodd"/><path fill="#000000" d="m134.75764 173.72577l-3.6875 -9.671875l1.734375 0l2.078125 5.796875q0.328125 0.9375 0.625 1.9375q0.203125 -0.765625 0.609375 -1.828125l2.140625 -5.90625l1.6875 0l-3.65625 9.671875l-1.53125 0zm12.359375 0l-1.640625 0l0 -10.453125q-0.59375 0.5625 -1.5625 1.140625q-0.953125 0.5625 -1.71875 0.84375l0 -1.59375q1.375 -0.640625 2.40625 -1.5625q1.03125 -0.921875 1.453125 -1.78125l1.0625 0l0 13.40625zm5.110092 0l0 -1.875l1.875 0l0 1.875l-1.875 0zm4.277054 -6.59375q0 -2.359375 0.484375 -3.796875q0.484375 -1.453125 1.4375 -2.234375q0.96875 -0.78125 2.421875 -0.78125q1.078125 0 1.890625 0.4375q0.8125 0.421875 1.328125 1.25q0.53125 0.8125 0.828125 1.984375q0.3125 1.15625 0.3125 3.140625q0 2.359375 -0.484375 3.8125q-0.484375 1.4375 -1.453125 2.234375q-0.953125 0.78125 -2.421875 0.78125q-1.921875 0 -3.03125 -1.390625q-1.3125 -1.671875 -1.3125 -5.4375zm1.671875 0q0 3.296875 0.765625 4.390625q0.78125 1.078125 1.90625 1.078125q1.140625 0 1.90625 -1.09375q0.765625 -1.09375 0.765625 -4.375q0 -3.296875 -0.765625 -4.375q-0.765625 -1.078125 -1.921875 -1.078125q-1.125 0 -1.796875 0.953125q-0.859375 1.21875 -0.859375 4.5zm9.610092 6.59375l0 -1.875l1.875 0l0 1.875l-1.875 0zm4.277054 -6.59375q0 -2.359375 0.484375 -3.796875q0.484375 -1.453125 1.4375 -2.234375q0.96875 -0.78125 2.421875 -0.78125q1.078125 0 1.890625 0.4375q0.8125 0.421875 1.328125 1.25q0.53125 0.8125 0.828125 1.984375q0.3125 1.15625 0.3125 3.140625q0 2.359375 -0.484375 3.8125q-0.484375 1.4375 -1.453125 2.234375q-0.953125 0.78125 -2.421875 0.78125q-1.921875 0 -3.03125 -1.390625q-1.3125 -1.671875 -1.3125 -5.4375zm1.671875 0q0 3.296875 0.765625 4.390625q0.78125 1.078125 1.90625 1.078125q1.140625 0 1.90625 -1.09375q0.765625 -1.09375 0.765625 -4.375q0 -3.296875 -0.765625 -4.375q-0.765625 -1.078125 -1.921875 -1.078125q-1.125 0 -1.796875 0.953125q-0.859375 1.21875 -0.859375 4.5z" fill-rule="nonzero"/><path fill="#000000" fill-opacity="0.0" d="m28.800526 120.2231l70.078735 0l0 42.015747l-70.078735 0z" fill-rule="evenodd"/><path fill="#000000" d="m39.0349 147.1431l0 -9.671875l1.46875 0l0 1.359375q0.453125 -0.71875 1.203125 -1.140625q0.765625 -0.4375 1.71875 -0.4375q1.078125 0 1.765625 0.453125q0.6875 0.4375 0.96875 1.234375q1.15625 -1.6875 2.984375 -1.6875q1.453125 0 2.21875 0.796875q0.78125 0.796875 0.78125 2.453125l0 6.640625l-1.640625 0l0 -6.09375q0 -0.984375 -0.15625 -1.40625q-0.15625 -0.4375 -0.578125 -0.703125q-0.421875 -0.265625 -0.984375 -0.265625q-1.015625 0 -1.6875 0.6875q-0.671875 0.671875 -0.671875 2.15625l0 5.625l-1.640625 0l0 -6.28125q0 -1.09375 -0.40625 -1.640625q-0.40625 -0.546875 -1.3125 -0.546875q-0.6875 0 -1.28125 0.359375q-0.59375 0.359375 -0.859375 1.0625q-0.25 0.703125 -0.25 2.03125l0 5.015625l-1.640625 0zm21.853302 -1.1875q-0.921875 0.765625 -1.765625 1.09375q-0.828125 0.3125 -1.796875 0.3125q-1.59375 0 -2.453125 -0.78125q-0.859375 -0.78125 -0.859375 -1.984375q0 -0.71875 0.328125 -1.296875q0.328125 -0.59375 0.84375 -0.9375q0.53125 -0.359375 1.1875 -0.546875q0.46875 -0.125 1.453125 -0.25q1.984375 -0.234375 2.921875 -0.5625q0.015625 -0.34375 0.015625 -0.421875q0 -1.0 -0.46875 -1.421875q-0.625 -0.546875 -1.875 -0.546875q-1.15625 0 -1.703125 0.40625q-0.546875 0.40625 -0.8125 1.421875l-1.609375 -0.21875q0.21875 -1.015625 0.71875 -1.640625q0.5 -0.640625 1.453125 -0.984375q0.953125 -0.34375 2.1875 -0.34375q1.25 0 2.015625 0.296875q0.78125 0.28125 1.140625 0.734375q0.375 0.4375 0.515625 1.109375q0.078125 0.421875 0.078125 1.515625l0 2.1875q0 2.28125 0.109375 2.890625q0.109375 0.59375 0.40625 1.15625l-1.703125 0q-0.265625 -0.515625 -0.328125 -1.1875zm-0.140625 -3.671875q-0.890625 0.375 -2.671875 0.625q-1.015625 0.140625 -1.4375 0.328125q-0.421875 0.1875 -0.65625 0.53125q-0.21875 0.34375 -0.21875 0.78125q0 0.65625 0.5 1.09375q0.5 0.4375 1.453125 0.4375q0.9375 0 1.671875 -0.40625q0.75 -0.421875 1.09375 -1.140625q0.265625 -0.5625 0.265625 -1.640625l0 -0.609375zm4.2038383 -6.609375l0 -1.890625l1.640625 0l0 1.890625l-1.640625 0zm0 11.46875l0 -9.671875l1.640625 0l0 9.671875l-1.640625 0zm4.144821 0l0 -9.671875l1.46875 0l0 1.375q1.0625 -1.59375 3.078125 -1.59375q0.875 0 1.609375 0.3125q0.734375 0.3125 1.09375 0.828125q0.375 0.5 0.515625 1.203125q0.09375 0.453125 0.09375 1.59375l0 5.953125l-1.640625 0l0 -5.890625q0 -1.0 -0.203125 -1.484375q-0.1875 -0.5 -0.671875 -0.796875q-0.484375 -0.296875 -1.140625 -0.296875q-1.046875 0 -1.8125 0.671875q-0.75 0.65625 -0.75 2.515625l0 5.28125l-1.640625 0z" fill-rule="nonzero"/><path fill="#000000" fill-opacity="0.0" d="m275.5223 284.7979l358.70865 0" fill-rule="evenodd"/><path stroke="#000000" stroke-width="1.0" stroke-linejoin="round" stroke-linecap="butt" d="m275.5223 284.7979l352.70865 0" fill-rule="evenodd"/><path fill="#000000" stroke="#000000" stroke-width="1.0" stroke-linecap="butt" d="m628.23096 286.44965l4.538086 -1.6517334l-4.538086 -1.6517334z" fill-rule="evenodd"/><path fill="#000000" fill-opacity="0.0" d="m193.75122 204.31027l37.51181 62.173218" fill-rule="evenodd"/><path stroke="#000000" stroke-width="1.0" stroke-linejoin="round" stroke-linecap="butt" d="m193.7512 204.31027l34.412216 57.03586" fill-rule="evenodd"/><path fill="#000000" stroke="#000000" stroke-width="1.0" stroke-linecap="butt" d="m226.74916 262.1994l3.7586365 3.0323792l-0.93011475 -4.738922z" fill-rule="evenodd"/><path fill="#ffffff" d="m223.6798 284.7979l0 0c0 -14.315918 11.605331 -25.921265 25.92125 -25.921265l0 0c6.874756 0 13.467926 2.7309875 18.329102 7.592163c4.8611755 4.8611755 7.592163 11.454346 7.592163 18.329102l0 0c0 14.315918 -11.605347 25.921234 -25.921265 25.921234l0 0c-14.315918 0 -25.92125 -11.605316 -25.92125 -25.921234z" fill-rule="evenodd"/><path stroke="#000000" stroke-width="1.0" stroke-linejoin="round" stroke-linecap="butt" d="m223.6798 284.7979l0 0c0 -14.315918 11.605331 -25.921265 25.92125 -25.921265l0 0c6.874756 0 13.467926 2.7309875 18.329102 7.592163c4.8611755 4.8611755 7.592163 11.454346 7.592163 18.329102l0 0c0 14.315918 -11.605347 25.921234 -25.921265 25.921234l0 0c-14.315918 0 -25.92125 -11.605316 -25.92125 -25.921234z" fill-rule="evenodd"/><path fill="#000000" fill-opacity="0.0" d="m33.598427 263.79004l81.6063 0l0 42.015747l-81.6063 0z" fill-rule="evenodd"/><path fill="#000000" d="m44.223427 290.71002l0 -8.40625l-1.453125 0l0 -1.265625l1.453125 0l0 -1.03125q0 -0.96875 0.171875 -1.453125q0.234375 -0.640625 0.828125 -1.03125q0.59375 -0.390625 1.671875 -0.390625q0.6875 0 1.53125 0.15625l-0.25 1.4375q-0.5 -0.09375 -0.953125 -0.09375q-0.75 0 -1.0625 0.328125q-0.3125 0.3125 -0.3125 1.1875l0 0.890625l1.890625 0l0 1.265625l-1.890625 0l0 8.40625l-1.625 0zm11.417679 -3.109375l1.6875 0.203125q-0.40625 1.484375 -1.484375 2.3125q-1.078125 0.8125 -2.765625 0.8125q-2.125 0 -3.375 -1.296875q-1.234375 -1.3125 -1.234375 -3.671875q0 -2.453125 1.25 -3.796875q1.265625 -1.34375 3.265625 -1.34375q1.9375 0 3.15625 1.328125q1.234375 1.3125 1.234375 3.703125q0 0.15625 0 0.4375l-7.21875 0q0.09375 1.59375 0.90625 2.453125q0.8125 0.84375 2.015625 0.84375q0.90625 0 1.546875 -0.46875q0.640625 -0.484375 1.015625 -1.515625zm-5.390625 -2.65625l5.40625 0q-0.109375 -1.21875 -0.625 -1.828125q-0.78125 -0.953125 -2.03125 -0.953125q-1.125 0 -1.90625 0.765625q-0.765625 0.75 -0.84375 2.015625zm15.453842 4.578125q-0.921875 0.765625 -1.765625 1.09375q-0.828125 0.3125 -1.796875 0.3125q-1.59375 0 -2.453125 -0.78125q-0.859375 -0.78125 -0.859375 -1.984375q0 -0.71875 0.328125 -1.296875q0.328125 -0.59375 0.84375 -0.9375q0.53125 -0.359375 1.1875 -0.546875q0.46875 -0.125 1.453125 -0.25q1.984375 -0.234375 2.921875 -0.5625q0.015625 -0.34375 0.015625 -0.421875q0 -1.0 -0.46875 -1.421875q-0.625 -0.546875 -1.875 -0.546875q-1.15625 0 -1.703125 0.40625q-0.546875 0.40625 -0.8125 1.421875l-1.609375 -0.21875q0.21875 -1.015625 0.71875 -1.640625q0.5 -0.640625 1.453125 -0.984375q0.953125 -0.34375 2.1875 -0.34375q1.25 0 2.015625 0.296875q0.78125 0.28125 1.140625 0.734375q0.375 0.4375 0.515625 1.109375q0.078125 0.421875 0.078125 1.515625l0 2.1875q0 2.28125 0.109375 2.890625q0.109375 0.59375 0.40625 1.15625l-1.703125 0q-0.265625 -0.515625 -0.328125 -1.1875zm-0.140625 -3.671875q-0.890625 0.375 -2.671875 0.625q-1.015625 0.140625 -1.4375 0.328125q-0.421875 0.1875 -0.65625 0.53125q-0.21875 0.34375 -0.21875 0.78125q0 0.65625 0.5 1.09375q0.5 0.4375 1.453125 0.4375q0.9375 0 1.671875 -0.40625q0.75 -0.421875 1.09375 -1.140625q0.265625 -0.5625 0.265625 -1.640625l0 -0.609375zm7.781967 3.390625l0.234375 1.453125q-0.6875 0.140625 -1.234375 0.140625q-0.890625 0 -1.390625 -0.28125q-0.484375 -0.28125 -0.6875 -0.734375q-0.203125 -0.46875 -0.203125 -1.9375l0 -5.578125l-1.203125 0l0 -1.265625l1.203125 0l0 -2.390625l1.625 -0.984375l0 3.375l1.65625 0l0 1.265625l-1.65625 0l0 5.671875q0 0.6875 0.078125 0.890625q0.09375 0.203125 0.28125 0.328125q0.203125 0.109375 0.578125 0.109375q0.265625 0 0.71875 -0.0625zm7.933304 1.46875l0 -1.421875q-1.125 1.640625 -3.0625 1.640625q-0.859375 0 -1.609375 -0.328125q-0.734375 -0.328125 -1.09375 -0.828125q-0.359375 -0.5 -0.5 -1.21875q-0.109375 -0.46875 -0.109375 -1.53125l0 -5.984375l1.640625 0l0 5.359375q0 1.28125 0.109375 1.734375q0.15625 0.640625 0.65625 1.015625q0.5 0.375 1.234375 0.375q0.734375 0 1.375 -0.375q0.65625 -0.390625 0.921875 -1.03125q0.265625 -0.65625 0.265625 -1.890625l0 -5.1875l1.640625 0l0 9.671875l-1.46875 0zm4.031967 0l0 -9.671875l1.46875 0l0 1.46875q0.5625 -1.03125 1.03125 -1.359375q0.484375 -0.328125 1.0625 -0.328125q0.828125 0 1.6875 0.53125l-0.5625 1.515625q-0.609375 -0.359375 -1.203125 -0.359375q-0.546875 0 -0.96875 0.328125q-0.421875 0.328125 -0.609375 0.890625q-0.28125 0.875 -0.28125 1.921875l0 5.0625l-1.625 0zm12.853302 -3.109375l1.6875 0.203125q-0.40625 1.484375 -1.484375 2.3125q-1.078125 0.8125 -2.765625 0.8125q-2.125 0 -3.375 -1.296875q-1.234375 -1.3125 -1.234375 -3.671875q0 -2.453125 1.25 -3.796875q1.265625 -1.34375 3.265625 -1.34375q1.9375 0 3.15625 1.328125q1.234375 1.3125 1.234375 3.703125q0 0.15625 0 0.4375l-7.21875 0q0.09375 1.59375 0.90625 2.453125q0.8125 0.84375 2.015625 0.84375q0.90625 0 1.546875 -0.46875q0.640625 -0.484375 1.015625 -1.515625zm-5.390625 -2.65625l5.40625 0q-0.109375 -1.21875 -0.625 -1.828125q-0.78125 -0.953125 -2.03125 -0.953125q-1.125 0 -1.90625 0.765625q-0.765625 0.75 -0.84375 2.015625z" fill-rule="nonzero"/><path fill="#000000" fill-opacity="0.0" d="m193.75122 129.30127l36.40944 -59.77952" fill-rule="evenodd"/><path stroke="#000000" stroke-width="1.0" stroke-linejoin="round" stroke-linecap="butt" d="m193.7512 129.30127l33.288406 -54.65516" fill-rule="evenodd"/><path fill="#000000" stroke="#000000" stroke-width="1.0" stroke-linecap="butt" d="m228.45029 75.505295l0.94992065 -4.734993l-3.771286 3.0166168z" fill-rule="evenodd"/><path fill="#ffffff" d="m222.56168 51.199474l0 0c0 -14.315914 11.605347 -25.921259 25.921265 -25.921259l0 0c6.8747406 0 13.467926 2.7309818 18.329102 7.592161c4.8611755 4.8611794 7.592163 11.454353 7.592163 18.329098l0 0c0 14.315914 -11.605347 25.92126 -25.921265 25.92126l0 0c-14.315918 0 -25.921265 -11.605347 -25.921265 -25.92126z" fill-rule="evenodd"/><path stroke="#000000" stroke-width="1.0" stroke-linejoin="round" stroke-linecap="butt" d="m222.56168 51.199474l0 0c0 -14.315914 11.605347 -25.921259 25.921265 -25.921259l0 0c6.8747406 0 13.467926 2.7309818 18.329102 7.592161c4.8611755 4.8611794 7.592163 11.454353 7.592163 18.329098l0 0c0 14.315914 -11.605347 25.92126 -25.921265 25.92126l0 0c-14.315918 0 -25.921265 -11.605347 -25.921265 -25.92126z" fill-rule="evenodd"/><path fill="#000000" fill-opacity="0.0" d="m28.800526 30.1916l81.60629 0l0 42.01575l-81.60629 0z" fill-rule="evenodd"/><path fill="#000000" d="m39.0349 57.1116l0 -13.359375l1.640625 0l0 4.796875q1.140625 -1.328125 2.890625 -1.328125q1.078125 0 1.859375 0.421875q0.796875 0.421875 1.140625 1.171875q0.34375 0.75 0.34375 2.171875l0 6.125l-1.640625 0l0 -6.125q0 -1.234375 -0.53125 -1.796875q-0.53125 -0.5625 -1.515625 -0.5625q-0.71875 0 -1.359375 0.390625q-0.640625 0.375 -0.921875 1.015625q-0.265625 0.640625 -0.265625 1.78125l0 5.296875l-1.640625 0zm9.766342 -4.84375q0 -2.6875 1.484375 -3.96875q1.25 -1.078125 3.046875 -1.078125q2.0 0 3.265625 1.3125q1.265625 1.296875 1.265625 3.609375q0 1.859375 -0.5625 2.9375q-0.5625 1.0625 -1.640625 1.65625q-1.0625 0.59375 -2.328125 0.59375q-2.03125 0 -3.28125 -1.296875q-1.25 -1.3125 -1.25 -3.765625zm1.6875 0q0 1.859375 0.796875 2.796875q0.8125 0.921875 2.046875 0.921875q1.21875 0 2.03125 -0.921875q0.8125 -0.9375 0.8125 -2.84375q0 -1.796875 -0.8125 -2.71875q-0.8125 -0.921875 -2.03125 -0.921875q-1.234375 0 -2.046875 0.921875q-0.796875 0.90625 -0.796875 2.765625zm12.875717 3.375l0.234375 1.453125q-0.6875 0.140625 -1.234375 0.140625q-0.890625 0 -1.390625 -0.28125q-0.484375 -0.28125 -0.6875 -0.734375q-0.203125 -0.46875 -0.203125 -1.9375l0 -5.578125l-1.203125 0l0 -1.265625l1.203125 0l0 -2.390625l1.625 -0.984375l0 3.375l1.65625 0l0 1.265625l-1.65625 0l0 5.671875q0 0.6875 0.078125 0.890625q0.09375 0.203125 0.28125 0.328125q0.203125 0.109375 0.578125 0.109375q0.265625 0 0.71875 -0.0625zm1.9958 1.46875l0 -8.40625l-1.4531212 0l0 -1.265625l1.4531212 0l0 -1.03125q0 -0.96875 0.171875 -1.453125q0.234375 -0.640625 0.828125 -1.03125q0.59375 -0.390625 1.671875 -0.390625q0.6875 0 1.53125 0.15625l-0.25 1.4375q-0.5 -0.09375 -0.953125 -0.09375q-0.75 0 -1.0625 0.328125q-0.3125 0.3125 -0.3125 1.1875l0 0.890625l1.890625 0l0 1.265625l-1.890625 0l0 8.40625l-1.625 0zm4.792679 -11.46875l0 -1.890625l1.640625 0l0 1.890625l-1.640625 0zm0 11.46875l0 -9.671875l1.640625 0l0 9.671875l-1.640625 0zm3.0510712 0l3.53125 -5.03125l-3.265625 -4.640625l2.046875 0l1.484375 2.265625q0.421875 0.640625 0.671875 1.078125q0.40625 -0.59375 0.734375 -1.0625l1.640625 -2.28125l1.953125 0l-3.34375 4.546875l3.59375 5.125l-2.015625 0l-1.984375 -3.0l-0.515625 -0.8125l-2.546875 3.8125l-1.984375 0z" fill-rule="nonzero"/><path fill="#ffffff" d="m316.32285 51.199474l0 0c0 -14.315914 11.605347 -25.921259 25.921234 -25.921259l0 0c6.874756 0 13.467926 2.7309818 18.329102 7.592161c4.861206 4.8611794 7.592163 11.454353 7.592163 18.329098l0 0c0 14.315914 -11.605347 25.92126 -25.921265 25.92126l0 0c-14.315887 0 -25.921234 -11.605347 -25.921234 -25.92126z" fill-rule="evenodd"/><path stroke="#000000" stroke-width="1.0" stroke-linejoin="round" stroke-linecap="butt" d="m316.32285 51.199474l0 0c0 -14.315914 11.605347 -25.921259 25.921234 -25.921259l0 0c6.874756 0 13.467926 2.7309818 18.329102 7.592161c4.861206 4.8611794 7.592163 11.454353 7.592163 18.329098l0 0c0 14.315914 -11.605347 25.92126 -25.921265 25.92126l0 0c-14.315887 0 -25.921234 -11.605347 -25.921234 -25.92126z" fill-rule="evenodd"/><path fill="#000000" fill-opacity="0.0" d="m274.4042 51.199474l41.921265 0" fill-rule="evenodd"/><path stroke="#000000" stroke-width="1.0" stroke-linejoin="round" stroke-linecap="butt" d="m274.4042 51.199474l35.921265 0" fill-rule="evenodd"/><path fill="#000000" stroke="#000000" stroke-width="1.0" stroke-linecap="butt" d="m310.32547 52.851208l4.538086 -1.6517334l-4.538086 -1.6517334z" fill-rule="evenodd"/><path fill="#000000" fill-opacity="0.0" d="m360.57318 69.52857l39.527557 55.2126" fill-rule="evenodd"/><path stroke="#000000" stroke-width="1.0" stroke-linejoin="round" stroke-linecap="butt" d="m360.5732 69.52857l36.03485 50.33396" fill-rule="evenodd"/><path fill="#000000" stroke="#000000" stroke-width="1.0" stroke-linecap="butt" d="m395.26505 120.824036l3.9847107 2.7284546l-1.298645 -4.651451z" fill-rule="evenodd"/><path fill="#ffffff" d="m367.8399 284.7979l0 0c0 -14.315918 11.605347 -25.921265 25.921265 -25.921265l0 0c6.8747253 0 13.4678955 2.7309875 18.329071 7.592163c4.861206 4.8611755 7.592163 11.454346 7.592163 18.329102l0 0c0 14.315918 -11.605347 25.921234 -25.921234 25.921234l0 0c-14.315918 0 -25.921265 -11.605316 -25.921265 -25.921234z" fill-rule="evenodd"/><path stroke="#000000" stroke-width="1.0" stroke-linejoin="round" stroke-linecap="butt" d="m367.8399 284.7979l0 0c0 -14.315918 11.605347 -25.921265 25.921265 -25.921265l0 0c6.8747253 0 13.4678955 2.7309875 18.329071 7.592163c4.861206 4.8611755 7.592163 11.454346 7.592163 18.329102l0 0c0 14.315918 -11.605347 25.921234 -25.921234 25.921234l0 0c-14.315918 0 -25.921265 -11.605316 -25.921265 -25.921234z" fill-rule="evenodd"/><path fill="#ffffff" d="m504.0 284.7979l0 0c0 -14.315918 11.605347 -25.921265 25.921265 -25.921265l0 0c6.874756 0 13.4678955 2.7309875 18.329102 7.592163c4.861145 4.8611755 7.592163 11.454346 7.592163 18.329102l0 0c0 14.315918 -11.605347 25.921234 -25.921265 25.921234l0 0c-14.315918 0 -25.921265 -11.605316 -25.921265 -25.921234z" fill-rule="evenodd"/><path stroke="#000000" stroke-width="1.0" stroke-linejoin="round" stroke-linecap="butt" d="m504.0 284.7979l0 0c0 -14.315918 11.605347 -25.921265 25.921265 -25.921265l0 0c6.874756 0 13.4678955 2.7309875 18.329102 7.592163c4.861145 4.8611755 7.592163 11.454346 7.592163 18.329102l0 0c0 14.315918 -11.605347 25.921234 -25.921265 25.921234l0 0c-14.315918 0 -25.921265 -11.605316 -25.921265 -25.921234z" fill-rule="evenodd"/><path fill="#000000" fill-opacity="0.0" d="m475.11606 199.74335l36.472443 66.74014" fill-rule="evenodd"/><path stroke="#000000" stroke-width="1.0" stroke-linejoin="round" stroke-linecap="butt" d="m475.11606 199.74333l33.595154 61.475082" fill-rule="evenodd"/><path fill="#000000" stroke="#000000" stroke-width="1.0" stroke-linecap="butt" d="m507.26178 262.0105l3.6256714 3.190155l-0.72680664 -4.774353z" fill-rule="evenodd"/><path fill="#ffffff" d="m384.57217 162.23885l0 0c0 -29.292831 23.746552 -53.039368 53.039368 -53.039368l0 0c14.066925 0 27.557709 5.5880585 37.504517 15.534866c9.946808 9.946808 15.534851 23.437592 15.534851 37.5045l0 0c0 29.292831 -23.746521 53.039368 -53.039368 53.039368l0 0c-29.292816 0 -53.039368 -23.746536 -53.039368 -53.039368z" fill-rule="evenodd"/><path stroke="#000000" stroke-width="1.0" stroke-linejoin="round" stroke-linecap="butt" d="m384.57217 162.23885l0 0c0 -29.292831 23.746552 -53.039368 53.039368 -53.039368l0 0c14.066925 0 27.557709 5.5880585 37.504517 15.534866c9.946808 9.946808 15.534851 23.437592 15.534851 37.5045l0 0c0 29.292831 -23.746521 53.039368 -53.039368 53.039368l0 0c-29.292816 0 -53.039368 -23.746536 -53.039368 -53.039368z" fill-rule="evenodd"/><path fill="#000000" d="m416.12247 169.15884l-3.6875 -9.671875l1.734375 0l2.078125 5.796875q0.328125 0.9375 0.625 1.9375q0.203125 -0.765625 0.609375 -1.828125l2.140625 -5.90625l1.6875 0l-3.65625 9.671875l-1.53125 0zm12.359375 0l-1.640625 0l0 -10.453125q-0.59375 0.5625 -1.5625 1.140625q-0.953125 0.5625 -1.71875 0.84375l0 -1.59375q1.375 -0.640625 2.40625 -1.5625q1.03125 -0.921875 1.453125 -1.78125l1.0625 0l0 13.40625zm5.1101074 0l0 -1.875l1.875 0l0 1.875l-1.875 0zm4.2770386 -6.59375q0 -2.359375 0.484375 -3.796875q0.484375 -1.453125 1.4375 -2.234375q0.96875 -0.78125 2.421875 -0.78125q1.078125 0 1.890625 0.4375q0.8125 0.421875 1.328125 1.25q0.53125 0.8125 0.828125 1.984375q0.3125 1.15625 0.3125 3.140625q0 2.359375 -0.484375 3.8125q-0.484375 1.4375 -1.453125 2.234375q-0.953125 0.78125 -2.421875 0.78125q-1.921875 0 -3.03125 -1.390625q-1.3125 -1.671875 -1.3125 -5.4375zm1.671875 0q0 3.296875 0.765625 4.390625q0.78125 1.078125 1.90625 1.078125q1.140625 0 1.90625 -1.09375q0.765625 -1.09375 0.765625 -4.375q0 -3.296875 -0.765625 -4.375q-0.765625 -1.078125 -1.921875 -1.078125q-1.125 0 -1.796875 0.953125q-0.859375 1.21875 -0.859375 4.5zm9.610107 6.59375l0 -1.875l1.875 0l0 1.875l-1.875 0z" fill-rule="nonzero"/><path fill="#ff0000" d="m459.59988 169.15884l-1.640625 0l0 -10.453125q-0.59375 0.5625 -1.5625 1.140625q-0.953125 0.5625 -1.71875 0.84375l0 -1.59375q1.375 -0.640625 2.40625 -1.5625q1.03125 -0.921875 1.453125 -1.78125l1.0625 0l0 13.40625z" fill-rule="nonzero"/><path fill="#ffffff" d="m634.23883 284.7979l0 0c0 -14.315918 11.605347 -25.921265 25.921265 -25.921265l0 0c6.874756 0 13.467957 2.7309875 18.329102 7.592163c4.861206 4.8611755 7.592163 11.454346 7.592163 18.329102l0 0c0 14.315918 -11.605347 25.921234 -25.921265 25.921234l0 0c-14.315918 0 -25.921265 -11.605316 -25.921265 -25.921234z" fill-rule="evenodd"/><path stroke="#000000" stroke-width="1.0" stroke-linejoin="round" stroke-linecap="butt" d="m634.23883 284.7979l0 0c0 -14.315918 11.605347 -25.921265 25.921265 -25.921265l0 0c6.874756 0 13.467957 2.7309875 18.329102 7.592163c4.861206 4.8611755 7.592163 11.454346 7.592163 18.329102l0 0c0 14.315918 -11.605347 25.921234 -25.921265 25.921234l0 0c-14.315918 0 -25.921265 -11.605316 -25.921265 -25.921234z" fill-rule="evenodd"/><path fill="#ffffff" d="m706.4934 162.23885l0 0c0 -29.292831 23.746582 -53.039368 53.03943 -53.039368l0 0c14.066895 0 27.557678 5.5880585 37.504456 15.534866c9.946838 9.946808 15.534912 23.437592 15.534912 37.5045l0 0c0 29.292831 -23.746582 53.039368 -53.039368 53.039368l0 0c-29.292847 0 -53.03943 -23.746536 -53.03943 -53.039368z" fill-rule="evenodd"/><path stroke="#000000" stroke-width="1.0" stroke-linejoin="round" stroke-linecap="butt" d="m706.4934 162.23885l0 0c0 -29.292831 23.746582 -53.039368 53.03943 -53.039368l0 0c14.066895 0 27.557678 5.5880585 37.504456 15.534866c9.946838 9.946808 15.534912 23.437592 15.534912 37.5045l0 0c0 29.292831 -23.746582 53.039368 -53.039368 53.039368l0 0c-29.292847 0 -53.03943 -23.746536 -53.03943 -53.039368z" fill-rule="evenodd"/><path fill="#000000" d="m738.04376 169.15884l-3.6875 -9.671875l1.734375 0l2.078125 5.796875q0.328125 0.9375 0.625 1.9375q0.203125 -0.765625 0.609375 -1.828125l2.140625 -5.90625l1.6875 0l-3.65625 9.671875l-1.53125 0zm12.359375 0l-1.640625 0l0 -10.453125q-0.59375 0.5625 -1.5625 1.140625q-0.953125 0.5625 -1.71875 0.84375l0 -1.59375q1.375 -0.640625 2.40625 -1.5625q1.03125 -0.921875 1.453125 -1.78125l1.0625 0l0 13.40625zm5.1100464 0l0 -1.875l1.875 0l0 1.875l-1.875 0z" fill-rule="nonzero"/><path fill="#ff0000" d="m765.96216 169.15884l-1.640625 0l0 -10.453125q-0.59375 0.5625 -1.5625 1.140625q-0.953125 0.5625 -1.71875 0.84375l0 -1.59375q1.375 -0.640625 2.40625 -1.5625q1.03125 -0.921875 1.453125 -1.78125l1.0625 0l0 13.40625zm5.1100464 0l0 -1.875l1.875 0l0 1.875l-1.875 0zm4.2770996 -6.59375q0 -2.359375 0.484375 -3.796875q0.484375 -1.453125 1.4375 -2.234375q0.96875 -0.78125 2.421875 -0.78125q1.078125 0 1.890625 0.4375q0.8125 0.421875 1.328125 1.25q0.53125 0.8125 0.828125 1.984375q0.3125 1.15625 0.3125 3.140625q0 2.359375 -0.484375 3.8125q-0.484375 1.4375 -1.453125 2.234375q-0.953125 0.78125 -2.421875 0.78125q-1.921875 0 -3.03125 -1.390625q-1.3125 -1.671875 -1.3125 -5.4375zm1.671875 0q0 3.296875 0.765625 4.390625q0.78125 1.078125 1.90625 1.078125q1.140625 0 1.90625 -1.09375q0.765625 -1.09375 0.765625 -4.375q0 -3.296875 -0.765625 -4.375q-0.765625 -1.078125 -1.921875 -1.078125q-1.125 0 -1.796875 0.953125q-0.859375 1.21875 -0.859375 4.5z" fill-rule="nonzero"/><path fill="#000000" fill-opacity="0.0" d="m678.4892 266.4688l43.527588 -66.74017" fill-rule="evenodd"/><path stroke="#000000" stroke-width="1.0" stroke-linejoin="round" stroke-linecap="butt" d="m678.4892 266.4688l40.249878 -61.71454" fill-rule="evenodd"/><path fill="#000000" stroke="#000000" stroke-width="1.0" stroke-linecap="butt" d="m720.12256 205.65659l1.095581 -4.7034454l-3.8626099 2.898819z" fill-rule="evenodd"/></g></svg>